<?xml version="1.0" encoding="utf-8" standalone="no"?>
<!DOCTYPE svg PUBLIC "-//W3C//DTD SVG 1.1//EN"
  "http://www.w3.org/Graphics/SVG/1.1/DTD/svg11.dtd">
<!-- Created with matplotlib (http://matplotlib.org/) -->
<svg height="300.690125pt" version="1.1" viewBox="0 0 413.8325 300.690125" width="413.8325pt" xmlns="http://www.w3.org/2000/svg" xmlns:xlink="http://www.w3.org/1999/xlink">
 <defs>
  <style type="text/css">
*{stroke-linecap:butt;stroke-linejoin:round;}
  </style>
 </defs>
 <g id="figure_1">
  <g id="patch_1">
   <path d="M 0 300.690125 
L 413.8325 300.690125 
L 413.8325 0 
L 0 0 
z
" style="fill:none;"/>
  </g>
  <g id="axes_1">
   <g id="line2d_1">
    <path clip-path="url(#p409cdba630)" d="M 62.245227 264.716 
L 71.518807 264.173355 
L 75.402614 263.922336 
L 80.792386 263.560572 
L 86.26142 263.161894 
L 90.065966 262.87396 
L 122.800909 259.714068 
L 129.141818 258.938861 
L 132.233011 258.540183 
L 149.03642 256.081669 
L 155.37733 255.011145 
L 158.31 254.490649 
L 170.199205 252.165027 
L 190.173068 247.403041 
L 201.824489 244.032735 
L 214.11 239.913063 
L 224.176193 236.04441 
L 233.132727 232.172066 
L 241.296648 228.248041 
L 248.747216 224.309251 
L 255.563693 220.374152 
L 261.825341 216.453818 
L 267.690682 212.500262 
L 273.080455 208.602077 
L 278.311705 204.567309 
L 283.146648 200.598986 
L 287.664545 196.67127 
L 297.017386 187.808069 
L 303.913125 180.587568 
L 310.967386 172.536488 
L 314.296364 168.490645 
L 320.161705 160.941604 
L 325.868523 153.052949 
L 331.179034 145.197516 
L 336.1725 137.323626 
L 340.928182 129.364833 
L 345.366818 121.502018 
L 349.646932 113.502618 
L 353.689261 105.551208 
L 357.573068 97.52966 
L 363.121364 85.381057 
L 368.11483 73.716035 
L 372.870511 61.914429 
L 376.120227 53.446214 
L 380.32108 41.984222 
L 384.44267 30.145702 
L 386.899773 22.796 
L 386.899773 22.796 
" style="fill:none;stroke:#efc732;stroke-linecap:square;stroke-width:1.5;"/>
   </g>
   <g id="line2d_2">
    <path clip-path="url(#p409cdba630)" d="M 62.245227 264.716 
L 63.434148 252.641226 
L 64.70233 242.039345 
L 66.129034 232.042865 
L 67.714261 222.64071 
L 69.37875 214.176186 
L 71.043239 206.785878 
L 72.786989 199.934523 
L 74.61 193.54091 
L 76.750057 186.837214 
L 79.127898 180.196273 
L 81.347216 174.614781 
L 83.566534 169.520563 
L 86.26142 163.880008 
L 89.669659 157.453172 
L 92.919375 151.923361 
L 95.852045 147.345947 
L 99.418807 142.225889 
L 102.192955 138.530735 
L 107.18642 132.425056 
L 110.990966 128.165108 
L 115.588125 123.403121 
L 121.057159 118.205542 
L 127.952898 112.251213 
L 131.678182 109.268511 
L 141.744375 101.904043 
L 154.029886 94.02277 
L 159.815966 90.648774 
L 168.296932 86.034445 
L 178.521648 80.918078 
L 190.965682 75.2443 
L 206.263125 68.950357 
L 225.76142 61.803685 
L 250.887273 53.726765 
L 258.734148 51.419601 
L 261.666818 50.577947 
L 279.18358 45.797503 
L 283.463693 44.690065 
L 288.140114 43.497722 
L 295.828466 41.596619 
L 298.919659 40.847252 
L 324.758864 34.940912 
L 328.563409 34.121407 
L 333.953182 32.977054 
L 339.025909 31.921295 
L 342.988977 31.109174 
L 350.756591 29.551377 
L 353.927045 28.923828 
L 386.899773 22.796 
L 386.899773 22.796 
" style="fill:none;stroke:#efc732;stroke-linecap:square;stroke-width:1.5;"/>
   </g>
   <g id="line2d_3">
    <path clip-path="url(#p409cdba630)" d="M 62.245227 264.716 
L 65.177898 262.534346 
L 386.899773 22.796 
L 386.899773 22.796 
" style="fill:none;stroke:#efc732;stroke-linecap:square;stroke-width:1.5;"/>
   </g>
   <g id="line2d_4">
    <path clip-path="url(#p409cdba630)" d="M 62.245227 264.716 
L 67.238693 264.140132 
L 82.060568 261.958477 
L 92.523068 259.898641 
L 101.479602 257.702221 
L 108.93017 255.505801 
L 115.429602 253.272466 
L 121.294943 250.968993 
L 126.684716 248.591691 
L 131.519659 246.218081 
L 136.037557 243.781716 
L 140.396932 241.219841 
L 144.439261 238.6432 
L 148.243807 236.033336 
L 151.969091 233.297962 
L 155.615114 230.444461 
L 162.748636 224.324016 
L 169.168807 218.192497 
L 175.588977 211.455578 
L 178.917955 207.727201 
L 182.246932 203.840091 
L 188.825625 195.704107 
L 196.355455 185.703935 
L 205.074205 173.333844 
L 210.305455 165.589155 
L 217.438977 154.758404 
L 241.851477 117.441409 
L 247.399773 109.371872 
L 252.313977 102.465145 
L 260.63642 91.405523 
L 267.373636 83.110807 
L 270.781875 79.153559 
L 276.964261 72.409257 
L 280.213977 69.086941 
L 286.396364 63.191675 
L 292.895795 57.588035 
L 296.145511 55.004011 
L 303.199773 49.883952 
L 306.608011 47.635852 
L 310.254034 45.387751 
L 314.296364 43.069512 
L 324.045511 38.196782 
L 334.032443 34.12879 
L 338.788125 32.475015 
L 345.129034 30.522231 
L 352.658864 28.532533 
L 361.219091 26.649887 
L 372.157159 24.722943 
L 386.107159 22.884595 
L 386.899773 22.796 
L 386.899773 22.796 
" style="fill:none;stroke:#efc732;stroke-linecap:square;stroke-width:1.5;"/>
   </g>
  </g>
 </g>
 <defs>
  <clipPath id="p409cdba630">
   <rect height="266.112" width="357.12" x="46.0125" y="10.7"/>
  </clipPath>
 </defs>
</svg>
