<?xml version="1.0" encoding="utf-8" standalone="no"?>
<!DOCTYPE svg PUBLIC "-//W3C//DTD SVG 1.1//EN"
  "http://www.w3.org/Graphics/SVG/1.1/DTD/svg11.dtd">
<!-- Created with matplotlib (http://matplotlib.org/) -->
<svg height="300.690125pt" version="1.1" viewBox="0 0 413.8325 300.690125" width="413.8325pt" xmlns="http://www.w3.org/2000/svg" xmlns:xlink="http://www.w3.org/1999/xlink">
 <defs>
  <style type="text/css">
*{stroke-linecap:butt;stroke-linejoin:round;}
  </style>
 </defs>
 <g id="figure_1">
  <g id="patch_1">
   <path d="M 0 300.690125 
L 413.8325 300.690125 
L 413.8325 0 
L 0 0 
z
" style="fill:none;"/>
  </g>
  <g id="axes_1">
   <g id="line2d_1">
    <path clip-path="url(#paef3036c80)" d="M 62.245227 264.716 
L 71.518807 264.173355 
L 75.402614 263.922336 
L 80.792386 263.560572 
L 86.26142 263.161894 
L 90.065966 262.87396 
L 122.800909 259.714068 
L 129.141818 258.938861 
L 132.233011 258.540183 
L 149.03642 256.081669 
L 155.37733 255.011145 
L 158.31 254.490649 
L 170.199205 252.165027 
L 190.173068 247.403041 
L 201.824489 244.032735 
L 214.11 239.913063 
L 224.176193 236.04441 
L 233.132727 232.172066 
L 241.296648 228.248041 
L 248.747216 224.309251 
L 255.563693 220.374152 
L 261.825341 216.453818 
L 267.690682 212.500262 
L 273.080455 208.602077 
L 278.311705 204.567309 
L 283.146648 200.598986 
L 287.664545 196.67127 
L 297.017386 187.808069 
L 303.913125 180.587568 
L 310.967386 172.536488 
L 314.296364 168.490645 
L 320.161705 160.941604 
L 325.868523 153.052949 
L 331.179034 145.197516 
L 336.1725 137.323626 
L 340.928182 129.364833 
L 345.366818 121.502018 
L 349.646932 113.502618 
L 353.689261 105.551208 
L 357.573068 97.52966 
L 363.121364 85.381057 
L 368.11483 73.716035 
L 372.870511 61.914429 
L 376.120227 53.446214 
L 380.32108 41.984222 
L 384.44267 30.145702 
L 386.899773 22.796 
L 386.899773 22.796 
" style="fill:none;stroke:#efc732;stroke-linecap:square;stroke-width:1.5;"/>
   </g>
  </g>
 </g>
 <defs>
  <clipPath id="paef3036c80">
   <rect height="266.112" width="357.12" x="46.0125" y="10.7"/>
  </clipPath>
 </defs>
</svg>
