<?xml version="1.0" encoding="utf-8" standalone="no"?>
<!DOCTYPE svg PUBLIC "-//W3C//DTD SVG 1.1//EN"
  "http://www.w3.org/Graphics/SVG/1.1/DTD/svg11.dtd">
<!-- Created with matplotlib (http://matplotlib.org/) -->
<svg height="300.690125pt" version="1.1" viewBox="0 0 413.8325 300.690125" width="413.8325pt" xmlns="http://www.w3.org/2000/svg" xmlns:xlink="http://www.w3.org/1999/xlink">
 <defs>
  <style type="text/css">
*{stroke-linecap:butt;stroke-linejoin:round;}
  </style>
 </defs>
 <g id="figure_1">
  <g id="patch_1">
   <path d="M 0 300.690125 
L 413.8325 300.690125 
L 413.8325 0 
L 0 0 
z
" style="fill:none;"/>
  </g>
  <g id="axes_1">
   <g id="line2d_1">
    <path clip-path="url(#pf4de51b792)" d="M 62.245227 264.716 
L 67.238693 264.140132 
L 82.060568 261.958477 
L 92.523068 259.898641 
L 101.479602 257.702221 
L 108.93017 255.505801 
L 115.429602 253.272466 
L 121.294943 250.968993 
L 126.684716 248.591691 
L 131.519659 246.218081 
L 136.037557 243.781716 
L 140.396932 241.219841 
L 144.439261 238.6432 
L 148.243807 236.033336 
L 151.969091 233.297962 
L 155.615114 230.444461 
L 162.748636 224.324016 
L 169.168807 218.192497 
L 175.588977 211.455578 
L 178.917955 207.727201 
L 182.246932 203.840091 
L 188.825625 195.704107 
L 196.355455 185.703935 
L 205.074205 173.333844 
L 210.305455 165.589155 
L 217.438977 154.758404 
L 241.851477 117.441409 
L 247.399773 109.371872 
L 252.313977 102.465145 
L 260.63642 91.405523 
L 267.373636 83.110807 
L 270.781875 79.153559 
L 276.964261 72.409257 
L 280.213977 69.086941 
L 286.396364 63.191675 
L 292.895795 57.588035 
L 296.145511 55.004011 
L 303.199773 49.883952 
L 306.608011 47.635852 
L 310.254034 45.387751 
L 314.296364 43.069512 
L 324.045511 38.196782 
L 334.032443 34.12879 
L 338.788125 32.475015 
L 345.129034 30.522231 
L 352.658864 28.532533 
L 361.219091 26.649887 
L 372.157159 24.722943 
L 386.107159 22.884595 
L 386.899773 22.796 
L 386.899773 22.796 
" style="fill:none;stroke:#efc732;stroke-linecap:square;stroke-width:1.5;"/>
   </g>
  </g>
 </g>
 <defs>
  <clipPath id="pf4de51b792">
   <rect height="266.112" width="357.12" x="46.0125" y="10.7"/>
  </clipPath>
 </defs>
</svg>
