<?xml version="1.0" encoding="utf-8" standalone="no"?>
<!DOCTYPE svg PUBLIC "-//W3C//DTD SVG 1.1//EN"
  "http://www.w3.org/Graphics/SVG/1.1/DTD/svg11.dtd">
<!-- Created with matplotlib (http://matplotlib.org/) -->
<svg height="300.690125pt" version="1.1" viewBox="0 0 413.8325 300.690125" width="413.8325pt" xmlns="http://www.w3.org/2000/svg" xmlns:xlink="http://www.w3.org/1999/xlink">
 <defs>
  <style type="text/css">
*{stroke-linecap:butt;stroke-linejoin:round;}
  </style>
 </defs>
 <g id="figure_1">
  <g id="patch_1">
   <path d="M 0 300.690125 
L 413.8325 300.690125 
L 413.8325 0 
L 0 0 
z
" style="fill:none;"/>
  </g>
  <g id="axes_1">
   <g id="line2d_1">
    <path clip-path="url(#p710146c2a4)" d="M 62.245227 264.716 
L 63.434148 252.641226 
L 64.70233 242.039345 
L 66.129034 232.042865 
L 67.714261 222.64071 
L 69.37875 214.176186 
L 71.043239 206.785878 
L 72.786989 199.934523 
L 74.61 193.54091 
L 76.750057 186.837214 
L 79.127898 180.196273 
L 81.347216 174.614781 
L 83.566534 169.520563 
L 86.26142 163.880008 
L 89.669659 157.453172 
L 92.919375 151.923361 
L 95.852045 147.345947 
L 99.418807 142.225889 
L 102.192955 138.530735 
L 107.18642 132.425056 
L 110.990966 128.165108 
L 115.588125 123.403121 
L 121.057159 118.205542 
L 127.952898 112.251213 
L 131.678182 109.268511 
L 141.744375 101.904043 
L 154.029886 94.02277 
L 159.815966 90.648774 
L 168.296932 86.034445 
L 178.521648 80.918078 
L 190.965682 75.2443 
L 206.263125 68.950357 
L 225.76142 61.803685 
L 250.887273 53.726765 
L 258.734148 51.419601 
L 261.666818 50.577947 
L 279.18358 45.797503 
L 283.463693 44.690065 
L 288.140114 43.497722 
L 295.828466 41.596619 
L 298.919659 40.847252 
L 324.758864 34.940912 
L 328.563409 34.121407 
L 333.953182 32.977054 
L 339.025909 31.921295 
L 342.988977 31.109174 
L 350.756591 29.551377 
L 353.927045 28.923828 
L 386.899773 22.796 
L 386.899773 22.796 
" style="fill:none;stroke:#efc732;stroke-linecap:square;stroke-width:1.5;"/>
   </g>
  </g>
 </g>
 <defs>
  <clipPath id="p710146c2a4">
   <rect height="266.112" width="357.12" x="46.0125" y="10.7"/>
  </clipPath>
 </defs>
</svg>
