<?xml version="1.0" encoding="utf-8" standalone="no"?>
<!DOCTYPE svg PUBLIC "-//W3C//DTD SVG 1.1//EN"
  "http://www.w3.org/Graphics/SVG/1.1/DTD/svg11.dtd">
<!-- Created with matplotlib (http://matplotlib.org/) -->
<svg height="380.477344pt" version="1.1" viewBox="0 0 521.964062 380.477344" width="521.964062pt" xmlns="http://www.w3.org/2000/svg" xmlns:xlink="http://www.w3.org/1999/xlink">
 <defs>
  <style type="text/css">
*{stroke-linecap:butt;stroke-linejoin:round;}
  </style>
 </defs>
 <g id="figure_1">
  <g id="patch_1">
   <path d="M 0 380.477344 
L 521.964062 380.477344 
L 521.964062 0 
L 0 0 
z
" style="fill:none;"/>
  </g>
  <g id="axes_1"/>
  <g id="axes_2">
   <g id="line2d_1">
    <path clip-path="url(#p2e5106b0b8)" d="M 55.533161 160.949632 
L 63.529029 160.463684 
L 68.177789 160.138992 
L 72.03626 159.846987 
L 92.723244 157.796417 
L 109.830682 155.279511 
L 121.034194 153.067684 
L 130.796591 150.666272 
L 138.606508 148.356384 
L 145.533161 145.968047 
L 151.437087 143.636367 
L 156.829649 141.241493 
L 161.571384 138.896739 
L 165.941219 136.521476 
L 174.587913 131.123748 
L 180.445351 126.870067 
L 186.256302 122.097751 
L 188.952583 119.678906 
L 193.601343 115.172445 
L 198.064153 110.411025 
L 202.062087 105.749845 
L 205.827583 100.986246 
L 209.314153 96.227005 
L 212.521798 91.52878 
L 215.589979 86.730314 
L 218.472211 81.931849 
L 222.470145 74.775554 
L 226.096178 67.743471 
L 229.489773 60.659088 
L 232.697417 53.483181 
L 235.719112 46.26587 
L 239.43812 36.729955 
L 242.878202 27.222369 
L 245.946384 18.139715 
L 245.946384 18.139715 
" style="fill:none;stroke:#efc732;stroke-linecap:square;stroke-width:1.5;"/>
   </g>
  </g>
  <g id="axes_3">
   <g id="line2d_2">
    <path clip-path="url(#pde51e15dcd)" d="M 306.878616 160.949632 
L 309.807335 158.755238 
L 497.291839 18.139715 
L 497.291839 18.139715 
" style="fill:none;stroke:#efc732;stroke-linecap:square;stroke-width:1.5;"/>
   </g>
  </g>
  <g id="axes_4">
   <g id="line2d_3">
    <path clip-path="url(#p8cb6c60670)" d="M 55.533161 349.458723 
L 56.462913 340.249679 
L 57.48564 332.348118 
L 58.601343 325.398842 
L 59.856508 318.966022 
L 61.204649 313.178227 
L 62.692252 307.754348 
L 64.458781 302.260737 
L 66.271798 297.409972 
L 68.224277 292.853391 
L 70.502169 288.205286 
L 72.547624 284.507286 
L 75.243905 280.172978 
L 77.940186 276.324617 
L 80.497004 273.034116 
L 83.611674 269.410207 
L 87.609607 265.258946 
L 90.817252 262.256091 
L 93.095145 260.270895 
L 97.046591 257.080635 
L 102.718079 252.96424 
L 110.016632 248.305239 
L 114.014566 245.99753 
L 118.98874 243.325905 
L 124.939153 240.381887 
L 132.191219 237.104461 
L 141.116839 233.458761 
L 152.459814 229.322754 
L 167.28936 224.572229 
L 187.464979 219.011065 
L 216.473244 212.325464 
L 222.702583 211.046309 
L 226.003202 210.38603 
L 245.946384 206.648806 
L 245.946384 206.648806 
" style="fill:none;stroke:#efc732;stroke-linecap:square;stroke-width:1.5;"/>
   </g>
  </g>
  <g id="axes_5">
   <g id="line2d_4">
    <path clip-path="url(#pcbe2c14ac2)" d="M 306.878616 349.458723 
L 311.155475 348.946625 
L 319.290806 347.691441 
L 325.566632 346.403569 
L 330.819731 345.05904 
L 335.189566 343.71669 
L 339.048037 342.335115 
L 346.253616 339.175363 
L 348.717459 337.898387 
L 351.274277 336.455797 
L 353.784607 334.917324 
L 358.20093 331.88832 
L 362.384814 328.615252 
L 366.382748 325.1003 
L 370.241219 321.332567 
L 374.053202 317.244501 
L 377.911674 312.738041 
L 381.909607 307.693332 
L 386.372417 301.652757 
L 391.579029 294.141263 
L 395.298037 288.545232 
L 413.009814 261.349569 
L 416.821798 255.829808 
L 421.749483 249.08755 
L 426.026343 243.654955 
L 429.884814 239.126703 
L 433.557335 235.160669 
L 437.229855 231.532401 
L 439.46126 229.490547 
L 442.808368 226.657666 
L 445.08626 224.879488 
L 448.758781 222.260162 
L 453.221591 219.462147 
L 458.102789 216.842821 
L 460.845558 215.55277 
L 463.727789 214.323735 
L 470.514979 211.896174 
L 474.00155 210.86762 
L 485.112087 208.376863 
L 489.760847 207.616344 
L 497.291839 206.648806 
L 497.291839 206.648806 
" style="fill:none;stroke:#efc732;stroke-linecap:square;stroke-width:1.5;"/>
   </g>
  </g>
 </g>
 <defs>
  <clipPath id="p2e5106b0b8">
   <rect height="157.090909" width="209.454545" x="46.0125" y="10.999219"/>
  </clipPath>
  <clipPath id="pde51e15dcd">
   <rect height="157.090909" width="209.454545" x="297.357955" y="10.999219"/>
  </clipPath>
  <clipPath id="p8cb6c60670">
   <rect height="157.090909" width="209.454545" x="46.0125" y="199.50831"/>
  </clipPath>
  <clipPath id="pcbe2c14ac2">
   <rect height="157.090909" width="209.454545" x="297.357955" y="199.50831"/>
  </clipPath>
 </defs>
</svg>
